<?xml version="1.0" encoding="UTF-8"?>
<svg id="Layer_2" data-name="Layer 2" xmlns="http://www.w3.org/2000/svg" viewBox="0 0 32 32">
  <defs>
    <style>
      .cls-1 {
        fill: none;
      }

      .cls-1, .cls-2, .cls-3 {
        stroke-width: 0px;
      }

      .cls-2 {
        fill: #36ce89;
      }

      .cls-3 {
        fill: #f2f2f2;
      }
    </style>
  </defs>
  <g id="Layer_1-2" data-name="Layer 1">
    <g>
      <g>
        <g>
          <path class="cls-3" d="M20.94,11.01s-.01.02-.02.04c0,0,0-.01.01-.02,0,0,0-.01,0-.02Z"/>
          <path class="cls-3" d="M21.16,10.39s0-.03.01-.05c0,.02,0,.03-.01.05Z"/>
          <path class="cls-3" d="M16.66.57c4.74,0,7.55,8.5,4.07,10.77-.65.79-1.97,1.23-4.43,1.56-7.8,1.07-13.46,2.02-13.46,10.48,0,4.77,3.1,8.04,9.77,8.04,3.93,0,7.03-1.37,8.87-3.4.06.89.24,1.91.48,2.62h7.21V12.13c0-7.38-3.22-11.56-12.51-11.56ZM21.36,19.52c-.06,3.45-3.04,6.37-7.03,6.37-2.44,0-3.75-1.07-3.75-3.28,0-2.5,1.43-3.75,5.84-4.59,2.86-.54,4.23-.95,5-1.73l-.06,3.22Z"/>
        </g>
        <path class="cls-2" d="M21.24,9.57c0,.58-.09,1.06-.31,1.46-.06.11-.14.22-.22.32,3.51-2.25.69-10.78-4.05-10.78-5.92,0-9.44,1.68-11.26,4.43-.17.25-.32.52-.46.79,0,0,0,.02-.01.03-.18.44-.28.91-.28,1.41,0,1.86,1.39,3.41,3.19,3.64.16.02.32.03.48.03s.32,0,.48-.03c1.17-.15,2.16-.85,2.71-1.83.05-.12.11-.23.17-.33,0,0,0,0,0,0,.77-1.36,2.2-2.18,4.62-2.18,3.04,0,4.95,1.13,4.95,3.04Z"/>
      </g>
      <rect class="cls-1" width="32" height="32"/>
    </g>
  </g>
</svg>