<svg xmlns="http://www.w3.org/2000/svg" viewBox="0 0 200.85 106.18"><g id="Layer_2" data-name="Layer 2"><g id="Layer_1-2" data-name="Layer 1"><path d="M100.87,63.68,97,68.06,55.27,19.84a6,6,0,0,0-9.11,0L50.71,0l49.95,57.46-2.73,2.6Z" fill="#18c0ff"/><path d="M55.43,28A9.26,9.26,0,0,0,54,27.25,8.47,8.47,0,0,1,55.43,28Z" fill="#372b7a"/><polygon points="81.58 82.47 50.74 47.95 50.75 47.94 81.58 82.47" fill="#372b7a"/><path d="M51.7,26.65l-.58,2-7,23.64-1.33,4.49L19.27,83.12l9.11,10.21L16.91,106.18l-14.3-16a10.76,10.76,0,0,1,0-14l41.53-46.5a8.72,8.72,0,0,1,6.57-3A8.22,8.22,0,0,1,51.7,26.65Z" fill="#fff"/><path d="M127.13,0V12.45H124.5a21.7,21.7,0,0,0-15.12,6.24V0Z" fill="#18c0ff"/><path d="M127,95.1l-5.63.06.15,5.7h-.15l.06,2.22-12,.1,0-60.52A15,15,0,0,1,124.5,27.8h2.62Z" fill="#f2f2f2"/><polygon points="121.55 103.08 121.4 103.08 121.34 100.86 121.49 100.86 121.55 103.08" fill="#25185a"/><path d="M127.13,22.11V27.8H124.5a15,15,0,0,0-15.08,14.86V37A15,15,0,0,1,124.5,22.11Z" fill="#18c0ff"/><polygon points="155.09 87.37 150.8 102.9 143.47 102.93 143.47 87.42 155.09 87.37" fill="#fff"/><polygon points="164.34 53.89 160.08 69.3 143.47 69.37 143.47 56.66 150.12 56.72 150.02 53.96 164.34 53.89" fill="#fff"/><polygon points="173.11 22.13 168.82 37.66 143.47 37.77 143.47 22.25 173.11 22.13" fill="#fff"/><polygon points="60.53 72.92 50.71 89.84 47.53 72.82 60.53 72.92" fill="#18c0ff"/><polygon points="50.71 63.56 47.53 72.82 40.9 72.92 50.71 63.56" fill="#ff6c9a"/><polygon points="50.71 89.84 40.9 72.92 47.53 72.82 50.71 89.84" fill="#fcb400"/><polygon points="60.53 72.92 47.53 72.82 50.71 63.56 60.53 72.92" fill="#69dcff"/><path d="M101.43,83.14a10.49,10.49,0,0,1-2.62,7L84.74,105.93l-12-13.49,8.89-10L50.75,47.94h0l0,0-7.89,8.83,1.33-4.49,7-23.64.58-2a6.85,6.85,0,0,1,.79.13h.06c.24.05.47.12.71.19s.5.17.75.27a9.26,9.26,0,0,1,1.42.76l.66.48c.18.14.35.29.52.44l.15.14c.18.18.36.36.53.55l41.52,46.5A10.49,10.49,0,0,1,101.43,83.14Z" fill="#f2f2f2"/><polygon points="50.74 47.95 46.76 52.61 42.75 56.99 42.82 56.74 50.71 47.91 50.74 47.95" fill="#25185a"/><polygon points="50.71 0 46.16 19.84 5.98 65.41 2.07 61.03 7.91 53.69 5.46 51.24 50.71 0" fill="#69dcff"/><path d="M200.85,75.41v5.12c0,13.11-8.7,22.25-21.16,22.25l-28.89.12,4.29-15.53,24.69-.1c3.77,0,5.92-2.3,5.92-6.3V75.41c0-2.82-1-6.19-5.83-6.19l-19.79.08,4.26-15.41,13.55-.07c3.89,0,5.93-2.07,5.93-6V42.72c0-3.19-2.18-5.1-5.83-5.1l-9.17,0,4.29-15.53,4.6,0c12.52,0,21.26,8.34,21.26,20.29v5.34a18.39,18.39,0,0,1-4.59,12.5A20.35,20.35,0,0,1,200.85,75.41Z" fill="#f2f2f2"/></g></g></svg>