<?xml version="1.0" encoding="UTF-8"?>
<svg version="1.1" xmlns="http://www.w3.org/2000/svg" width="48" height="48">
<path d="M0 0 C4.41889613 1.35021826 6.34345343 3.26115668 9 7 C9.66 6.67 10.32 6.34 11 6 C13.3329866 5.95977609 15.66706666 5.95679753 18 6 C18.66 7.65 19.32 9.3 20 11 C20.86625 10.7215625 20.86625 10.7215625 21.75 10.4375 C24.20692525 9.95976454 25.64397534 10.24270636 28 11 C28 11.99 28 12.98 28 14 C27.01 14.66 26.02 15.32 25 16 C23.92523345 18.19184675 23.10705606 20.42333548 22.2578125 22.7109375 C20.60073519 25.72661236 18.86611415 27.0929564 16 29 C12.84960937 29.50170898 12.84960937 29.50170898 9.34375 29.49609375 C7.43916016 29.49706055 7.43916016 29.49706055 5.49609375 29.49804688 C4.17738281 29.47806641 2.85867187 29.45808594 1.5 29.4375 C-0.47806641 29.44813477 -0.47806641 29.44813477 -2.49609375 29.45898438 C-13.49475269 29.38640439 -13.49475269 29.38640439 -18 26 C-20.4294516 22.3558226 -20.16179575 20.28758728 -20 16 C-18.68 15.67 -17.36 15.34 -16 15 C-16.020625 13.700625 -16.04125 12.40125 -16.0625 11.0625 C-16.08399454 9.70834367 -16.07148199 8.35243917 -16 7 C-15 6 -15 6 -11.625 5.9375 C-10.42875 5.958125 -9.2325 5.97875 -8 6 C-5.04491137 6.34370205 -5.04491137 6.34370205 -3.61328125 4.6875 C-3.18402344 4.130625 -2.75476563 3.57375 -2.3125 3 C-1.549375 2.01 -0.78625 1.02 0 0 Z M1 4 C-2.56004623 8.33880635 -3.57710531 11.31356205 -3.33984375 16.94140625 C-2.90165832 19.59570193 -1.93354322 21.14702108 0 23 C0 20.36 0 17.72 0 15 C0.99 15 1.98 15 3 15 C3 17.64 3 20.28 3 23 C5.69481258 20.30518742 5.96558486 18.45600057 6.25 14.6875 C5.97893713 10.68932267 5.09575015 8.38544255 3 5 C2.34 4.67 1.68 4.34 1 4 Z M-13 9 C-12.76995266 14.3907997 -12.76995266 14.3907997 -10.4375 19 C-9.963125 19.33 -9.48875 19.66 -9 20 C-9 19.01 -9 18.02 -9 17 C-8.01 17.33 -7.02 17.66 -6 18 C-6 15.69 -6 13.38 -6 11 C-8.64738916 9.5393715 -9.89448334 9 -13 9 Z M10.8125 9.9375 C10.214375 10.288125 9.61625 10.63875 9 11 C9 13.31 9 15.62 9 18 C9.99 17.67 10.98 17.34 12 17 C11.67 18.32 11.34 19.64 11 21 C14.12270126 18.48169253 14.94523098 17.2738451 15.75 13.25 C15.8325 12.1775 15.915 11.105 16 10 C13.10813214 8.66695302 13.10813214 8.66695302 10.8125 9.9375 Z M18 14 C19 16 19 16 19 16 Z M-17 19 C-16.43923199 21.49004504 -16.43923199 21.49004504 -15 24 C-11.97017694 25.37189827 -11.97017694 25.37189827 -9 26 C-9.75827092 24.82512964 -10.53207755 23.66027408 -11.3125 22.5 C-11.74175781 21.8503125 -12.17101562 21.200625 -12.61328125 20.53125 C-13.07089844 20.0259375 -13.52851563 19.520625 -14 19 C-14.99 19 -15.98 19 -17 19 Z M17 19 C15.53909212 20.5354878 15.53909212 20.5354878 14.3125 22.5 C13.65701172 23.47453125 13.65701172 23.47453125 12.98828125 24.46875 C12.66214844 24.9740625 12.33601563 25.479375 12 26 C14.97017694 25.37189827 14.97017694 25.37189827 18 24 C19.43923199 21.49004504 19.43923199 21.49004504 20 19 C19.01 19 18.02 19 17 19 Z " fill="#568EA3" transform="translate(20,9)"/>
</svg>
